<svg xmlns="http://www.w3.org/2000/svg" xmlns:xlink="http://www.w3.org/1999/xlink" width="370.495" height="49.692" viewBox="0 0 370.495 49.692">
  <defs>
    <linearGradient id="linear-gradient" y1="0.5" x2="1" y2="0.5" gradientUnits="objectBoundingBox">
      <stop offset="0.802" stop-color="#494e2e"/>
      <stop offset="0.941" stop-color="#494e2e"/>
    </linearGradient>
    <linearGradient id="linear-gradient-2" x1="60.158" y1="0.5" x2="61.158" y2="0.5" xlink:href="#linear-gradient"/>
    <linearGradient id="linear-gradient-3" y1="0.5" x2="1" y2="0.5" gradientUnits="objectBoundingBox">
      <stop offset="0.346" stop-color="#494e2e"/>
      <stop offset="1" stop-color="#72732f"/>
    </linearGradient>
    <linearGradient id="linear-gradient-4" y1="0.5" x2="1" y2="0.5" gradientUnits="objectBoundingBox">
      <stop offset="0.257" stop-color="#72732f"/>
      <stop offset="0.743" stop-color="#494e2e"/>
    </linearGradient>
    <linearGradient id="linear-gradient-5" y1="0.5" x2="1" y2="0.5" gradientUnits="objectBoundingBox">
      <stop offset="0" stop-color="#494e2e"/>
      <stop offset="1" stop-color="#77782e"/>
    </linearGradient>
    <linearGradient id="linear-gradient-6" y1="0.5" x2="1" y2="0.5" gradientUnits="objectBoundingBox">
      <stop offset="0" stop-color="#494e2e"/>
      <stop offset="0.598" stop-color="#77782e"/>
    </linearGradient>
    <linearGradient id="linear-gradient-7" y1="0.5" x2="1" y2="0.5" gradientUnits="objectBoundingBox">
      <stop offset="0.592" stop-color="#77782e"/>
      <stop offset="1" stop-color="#77782e"/>
    </linearGradient>
  </defs>
  <g id="mxs_conex達o" data-name="mxs + conex達o" transform="translate(-380.5 -45.5)">
    <g id="Grupo_115" data-name="Grupo 115" transform="translate(215.627 -41.497)">
      <g id="Grupo_109" data-name="Grupo 109" transform="translate(164.873 90.305)">
        <path id="Caminho_107" data-name="Caminho 107" d="M287.382,153.182q0,2.875-.009,5.751a22.94,22.94,0,0,0,8.489-40.831l-14.608,15.2v6.021l14.616-13.6a17.017,17.017,0,0,1,3.217,16.858C296.147,150.734,288.092,153,287.382,153.182Z" transform="translate(-258.007 -112.55)" fill="url(#linear-gradient)"/>
        <path id="Caminho_108" data-name="Caminho 108" d="M182.683,153.182q0,2.875.009,5.751A22.94,22.94,0,0,1,174.2,118.1l14.608,15.2v6.021l-14.616-13.6a17.017,17.017,0,0,0-3.217,16.858C173.918,150.734,181.972,153,182.683,153.182Z" transform="translate(-164.873 -112.55)" fill="url(#linear-gradient-2)"/>
        <path id="Caminho_109" data-name="Caminho 109" d="M345.876,203.694" transform="translate(-309.722 -181.045)" fill="#fcfcfd"/>
        <path id="Caminho_110" data-name="Caminho 110" d="M224.2,150.64l-3.611,3.611L196.15,129.946a13.433,13.433,0,0,1,4.739-2.549q1.43,1.39,2.859,2.787Q214.187,140.392,224.2,150.64Z" transform="translate(-189.903 -119.988)" fill="url(#linear-gradient-3)"/>
        <path id="Caminho_111" data-name="Caminho 111" d="M232.486,148.328l3.612,3.612,24.443-24.306a13.434,13.434,0,0,0-4.74-2.549q-1.43,1.39-2.859,2.787Q242.5,138.08,232.486,148.328Z" transform="translate(-218.981 -118.138)" fill="url(#linear-gradient-4)"/>
        <g id="Grupo_108" data-name="Grupo 108" transform="translate(8.78)">
          <path id="Caminho_112" data-name="Caminho 112" d="M248.668,96.891a18.215,18.215,0,0,0-9.306-1.74,17.821,17.821,0,0,0-5.716,1.461l-3.035-3.334a20.253,20.253,0,0,1,21.743.391Z" transform="translate(-226.26 -90.305)" fill="url(#linear-gradient-5)"/>
          <path id="Caminho_113" data-name="Caminho 113" d="M249.672,119.457l-2.315,4.409L222.828,99.648a19.208,19.208,0,0,1,5.405-2.509Z" transform="translate(-220.032 -95.774)" fill="url(#linear-gradient-6)"/>
          <path id="Caminho_114" data-name="Caminho 114" d="M209.388,189.033a15.288,15.288,0,0,0,.557,9.814,15.068,15.068,0,0,0,14.445,9.135c8.19-.449,12.158-7.779,12.4-8.263a15.756,15.756,0,0,0,1.674-6.794l-4.2.658a10.437,10.437,0,1,1-20.844-1Z" transform="translate(-208.83 -169.313)" fill="url(#linear-gradient-7)"/>
        </g>
        <path id="Caminho_115" data-name="Caminho 115" d="M346.108,188.334" transform="translate(-309.907 -168.753)" fill="#fcfcfd"/>
      </g>
      <g id="Grupo_114" data-name="Grupo 114" transform="translate(223.438 93.734)">
        <g id="Grupo_111" data-name="Grupo 111" transform="translate(0)">
          <g id="Grupo_110" data-name="Grupo 110">
            <path id="Caminho_116" data-name="Caminho 116" d="M458.075,112.232a3.4,3.4,0,0,1,3.423-3.423h.756a3.515,3.515,0,0,1,3.111,1.778l8.267,13.467,8.312-13.512a3.352,3.352,0,0,1,3.067-1.733h.756a3.4,3.4,0,0,1,3.423,3.423v24.712a3.4,3.4,0,1,1-6.8,0V121.432l-6,9.245a3.2,3.2,0,0,1-5.689,0l-5.911-9.112v15.467a3.339,3.339,0,0,1-3.378,3.334,3.3,3.3,0,0,1-3.333-3.334Z" transform="translate(-458.075 -108.542)" fill="#162b45"/>
            <path id="Caminho_117" data-name="Caminho 117" d="M643.8,134.231l8.4-10.312-7.911-9.645a4.181,4.181,0,0,1-1.023-2.533,3.3,3.3,0,0,1,3.378-3.378,3.592,3.592,0,0,1,3.156,1.689l6.8,9.067,6.756-8.889a3.909,3.909,0,0,1,3.333-1.867,3.126,3.126,0,0,1,3.111,3.156,4.066,4.066,0,0,1-1.022,2.622l-7.912,9.689,8.356,10.267a4.183,4.183,0,0,1,1.022,2.534,3.3,3.3,0,0,1-3.378,3.378,3.592,3.592,0,0,1-3.155-1.689l-7.289-9.556-7.2,9.378a3.909,3.909,0,0,1-3.334,1.867,3.126,3.126,0,0,1-3.111-3.155A4.065,4.065,0,0,1,643.8,134.231Z" transform="translate(-605.887 -108.185)" fill="#162b45"/>
            <path id="Caminho_118" data-name="Caminho 118" d="M798.729,135.742a3.2,3.2,0,0,1-1.289-2.577,3.149,3.149,0,0,1,3.2-3.156,3.291,3.291,0,0,1,1.955.622,13.122,13.122,0,0,0,7.956,2.8c2.8,0,4.489-1.111,4.489-2.934v-.089c0-1.733-1.067-2.622-6.267-3.956-6.267-1.6-10.312-3.334-10.312-9.512v-.088c0-5.645,4.534-9.378,10.889-9.378a18.063,18.063,0,0,1,9.867,2.756,3.168,3.168,0,0,1-1.689,5.867,3.287,3.287,0,0,1-1.733-.489,12.943,12.943,0,0,0-6.534-2.089c-2.622,0-4,1.2-4,2.711v.088c0,2.045,1.333,2.711,6.711,4.089,6.311,1.645,9.867,3.912,9.867,9.334v.089c0,6.178-4.711,9.645-11.423,9.645A20.081,20.081,0,0,1,798.729,135.742Z" transform="translate(-729.654 -107.474)" fill="#162b45"/>
          </g>
        </g>
        <g id="Grupo_113" data-name="Grupo 113" transform="translate(25.948 36.701)">
          <g id="Grupo_112" data-name="Grupo 112">
            <path id="Caminho_119" data-name="Caminho 119" d="M590.122,300.7a1.613,1.613,0,0,0-.822.212,1.477,1.477,0,0,0-.57.59,1.8,1.8,0,0,0-.2.867,1.825,1.825,0,0,0,.2.871,1.468,1.468,0,0,0,.57.595,1.611,1.611,0,0,0,.822.211,1.939,1.939,0,0,0,.761-.146,1.556,1.556,0,0,0,.583-.423l.309.325a1.9,1.9,0,0,1-.716.53,2.387,2.387,0,0,1-.961.187,2.166,2.166,0,0,1-1.091-.273,1.945,1.945,0,0,1-.753-.765,2.4,2.4,0,0,1,0-2.223,1.952,1.952,0,0,1,.753-.765,2.17,2.17,0,0,1,1.091-.273,2.454,2.454,0,0,1,.908.163,2.063,2.063,0,0,1,.7.456l-.31.367A1.766,1.766,0,0,0,590.122,300.7Z" transform="translate(-587.98 -298.422)" fill="#767923"/>
            <path id="Caminho_120" data-name="Caminho 120" d="M622.4,300.487a1.753,1.753,0,0,1,.949-.265v.513a1.46,1.46,0,0,0-1.087.395,1.665,1.665,0,0,0-.468,1.1v2.28h-.545v-4.267h.545v.993A1.636,1.636,0,0,1,622.4,300.487Z" transform="translate(-614.601 -298.422)" fill="#767923"/>
            <path id="Caminho_121" data-name="Caminho 121" d="M645.7,293.644a2.432,2.432,0,0,1,.481,1.7h-3.558a1.635,1.635,0,0,0,.505,1.1,1.557,1.557,0,0,0,1.107.419,1.945,1.945,0,0,0,.757-.146,1.737,1.737,0,0,0,.6-.415l.309.309a2.116,2.116,0,0,1-.745.517,2.436,2.436,0,0,1-.957.183,2.184,2.184,0,0,1-1.1-.273,1.951,1.951,0,0,1-.753-.761,2.409,2.409,0,0,1,0-2.227,1.953,1.953,0,0,1,.753-.765,2.154,2.154,0,0,1,1.083-.273A1.85,1.85,0,0,1,645.7,293.644Zm-.008,1.275a1.562,1.562,0,0,0-.444-1.063,1.444,1.444,0,0,0-1.055-.4,1.524,1.524,0,0,0-1.075.4,1.6,1.6,0,0,0-.5,1.059Zm-.945-3.705.562.244-1.026.815-.488-.057Z" transform="translate(-631.271 -291.213)" fill="#767923"/>
            <path id="Caminho_122" data-name="Caminho 122" d="M678.606,291.416v6.042h-.546v-.977a1.8,1.8,0,0,1-.684.745,1.952,1.952,0,0,1-1.027.265,2.087,2.087,0,0,1-1.075-.277,1.9,1.9,0,0,1-.733-.774,2.38,2.38,0,0,1-.261-1.124,2.3,2.3,0,0,1,.264-1.115,1.947,1.947,0,0,1,.733-.765,2.044,2.044,0,0,1,1.063-.277,1.953,1.953,0,0,1,1.03.269,1.821,1.821,0,0,1,.688.749v-2.761Zm-1.327,5.387a1.518,1.518,0,0,0,.574-.6,1.8,1.8,0,0,0,.208-.872,1.821,1.821,0,0,0-.208-.875,1.543,1.543,0,0,0-.574-.607,1.6,1.6,0,0,0-2.24.607,1.925,1.925,0,0,0,0,1.747,1.508,1.508,0,0,0,.578.6,1.628,1.628,0,0,0,.835.216A1.606,1.606,0,0,0,677.279,296.8Z" transform="translate(-657.044 -291.375)" fill="#767923"/>
            <path id="Caminho_123" data-name="Caminho 123" d="M712.4,292.342a.378.378,0,0,1,.106.273.384.384,0,0,1-.11.277.353.353,0,0,1-.264.114.364.364,0,0,1-.273-.114.386.386,0,0,1-.11-.277.375.375,0,0,1,.383-.383A.357.357,0,0,1,712.4,292.342Zm-.545,1.5h.545v4.267h-.545Z" transform="translate(-687.024 -292.028)" fill="#767923"/>
            <path id="Caminho_124" data-name="Caminho 124" d="M731.369,300.363a1.742,1.742,0,0,1-.944.318,1.014,1.014,0,0,1-.774-.3,1.27,1.27,0,0,1-.285-.9v-2.541h-.611l-.008-.423h.619v-1.1h.546v1.1l1.384-.008v.431h-1.384v2.451q0,.79.586.79a1.4,1.4,0,0,0,.708-.228Z" transform="translate(-700.63 -294.573)" fill="#767923"/>
            <path id="Caminho_125" data-name="Caminho 125" d="M755.687,300.495a1.968,1.968,0,0,1,.765.761,2.2,2.2,0,0,1,.277,1.108,2.24,2.24,0,0,1-.277,1.12,1.954,1.954,0,0,1-.765.765,2.383,2.383,0,0,1-2.215,0,1.954,1.954,0,0,1-.765-.765,2.242,2.242,0,0,1-.277-1.12,2.206,2.206,0,0,1,.277-1.108,1.968,1.968,0,0,1,.765-.761,2.383,2.383,0,0,1,2.215,0Zm-1.938.411a1.464,1.464,0,0,0-.57.595,1.823,1.823,0,0,0-.2.871,1.843,1.843,0,0,0,.2.879,1.464,1.464,0,0,0,.57.594,1.734,1.734,0,0,0,1.662,0,1.464,1.464,0,0,0,.57-.594,1.843,1.843,0,0,0,.2-.879,1.823,1.823,0,0,0-.2-.871,1.464,1.464,0,0,0-.57-.595,1.735,1.735,0,0,0-1.662,0Z" transform="translate(-719.582 -298.422)" fill="#767923"/>
          </g>
        </g>
      </g>
    </g>
    <g id="Grupo_168" data-name="Grupo 168" transform="translate(511.695 -42.195)">
      <circle id="Elipse_9" data-name="Elipse 9" cx="1.86" cy="1.86" r="1.86" transform="translate(216.825 104.235)" fill="#fbd717"/>
      <g id="Grupo_167" data-name="Grupo 167" transform="translate(223.952 100.52)">
        <path id="Caminho_190" data-name="Caminho 190" d="M1225.071,174.531a1.387,1.387,0,0,1-.932.346,1.41,1.41,0,0,1-1.1-.474,2.042,2.042,0,0,1,0-2.486,1.408,1.408,0,0,1,1.106-.474,1.425,1.425,0,0,1,.9.314,1.674,1.674,0,0,1,.568.828h2.61a3.848,3.848,0,0,0-1.329-2.521,4.1,4.1,0,0,0-2.76-.962,4.524,4.524,0,0,0-2.181.522,3.811,3.811,0,0,0-1.514,1.452,4.277,4.277,0,0,0,0,4.174,3.811,3.811,0,0,0,1.514,1.452,4.526,4.526,0,0,0,2.181.522,4.09,4.09,0,0,0,2.8-1,3.92,3.92,0,0,0,1.318-2.6H1225.6A1.616,1.616,0,0,1,1225.071,174.531Z" transform="translate(-1219.89 -169.1)"/>
        <path id="Caminho_191" data-name="Caminho 191" d="M1281.985,173.807a2.788,2.788,0,0,0-1.991-.726c-.083,0-.2,0-.34.011l1.439-2.344h-2.571l-1.217,1.986a8.171,8.171,0,0,0-.763,1.557,4.3,4.3,0,0,0-.247,1.415,2.688,2.688,0,0,0,.9,2.1,3.788,3.788,0,0,0,4.674,0,2.728,2.728,0,0,0,.888-2.122A2.462,2.462,0,0,0,1281.985,173.807Zm-1.735,2.6a1,1,0,0,1-1.719-.72.994.994,0,0,1,.278-.726,1.057,1.057,0,0,1,1.441,0,.994.994,0,0,1,.278.726A.975.975,0,0,1,1280.25,176.405Z" transform="translate(-1267.409 -170.488)"/>
      </g>
      <text id="Conex達o" transform="translate(37.695 124.695)" font-size="38" font-family="Montserrat-ExtraBold, Montserrat" font-weight="800" letter-spacing="-0.05em"><tspan x="0" y="0">Conex達o</tspan></text>
    </g>
  </g>
</svg>
