<svg xmlns="http://www.w3.org/2000/svg" xmlns:xlink="http://www.w3.org/1999/xlink" width="101" height="102.267" viewBox="0 0 101 102.267">
  <defs>
    <filter id="Background" x="0" y="0" width="101" height="102.267" filterUnits="userSpaceOnUse">
      <feOffset dy="2" input="SourceAlpha"/>
      <feGaussianBlur stdDeviation="10" result="blur"/>
      <feFlood flood-opacity="0.102"/>
      <feComposite operator="in" in2="blur"/>
      <feComposite in="SourceGraphic"/>
    </filter>
  </defs>
  <g id="twitter" transform="translate(-1373 -4023.143)">
    <g id="twitter-2" data-name="twitter">
      <g transform="matrix(1, 0, 0, 1, 1373, 4023.14)" filter="url(#Background)">
        <path id="Background-2" data-name="Background" d="M20.5,42.267c11.322,0,20.5-9.462,20.5-21.133S31.822,0,20.5,0,0,9.462,0,21.133,9.178,42.267,20.5,42.267Z" transform="translate(30 28)" fill="#fff"/>
      </g>
    </g>
    <path id="Vector" d="M16,1.587a6.679,6.679,0,0,1-1.89.534A3.346,3.346,0,0,0,15.553.252a6.437,6.437,0,0,1-2.08.819A3.242,3.242,0,0,0,11.077,0,3.331,3.331,0,0,0,7.8,3.382a3.586,3.586,0,0,0,.076.771A9.2,9.2,0,0,1,1.114.616,3.485,3.485,0,0,0,.665,2.326a3.415,3.415,0,0,0,1.457,2.81A3.165,3.165,0,0,1,.64,4.719v.037A3.373,3.373,0,0,0,3.268,8.079a3.181,3.181,0,0,1-.86.111,2.816,2.816,0,0,1-.621-.058,3.326,3.326,0,0,0,3.065,2.356A6.466,6.466,0,0,1,.785,11.931,5.962,5.962,0,0,1,0,11.884,9.035,9.035,0,0,0,5.032,13.4c6.036,0,9.336-5.155,9.336-9.622,0-.149-.005-.294-.012-.437A6.659,6.659,0,0,0,16,1.587Z" transform="translate(1415 4065.576)" fill="#080809"/>
  </g>
</svg>
