<svg xmlns="http://www.w3.org/2000/svg" xmlns:xlink="http://www.w3.org/1999/xlink" width="101" height="102.267" viewBox="0 0 101 102.267">
  <defs>
    <filter id="Background" x="0" y="0" width="101" height="102.267" filterUnits="userSpaceOnUse">
      <feOffset dy="2" input="SourceAlpha"/>
      <feGaussianBlur stdDeviation="10" result="blur"/>
      <feFlood flood-opacity="0.102"/>
      <feComposite operator="in" in2="blur"/>
      <feComposite in="SourceGraphic"/>
    </filter>
  </defs>
  <g id="FACEBOOK" transform="translate(-1237 -4021.082)">
    <g transform="matrix(1, 0, 0, 1, 1237, 4021.08)" filter="url(#Background)">
      <path id="Background-2" data-name="Background" d="M20.5,42.267c11.322,0,20.5-9.462,20.5-21.133S31.822,0,20.5,0,0,9.462,0,21.133,9.178,42.267,20.5,42.267Z" transform="translate(30 28)" fill="#fff"/>
    </g>
    <path id="Facebook_Icon" data-name="Facebook Icon" d="M5.537,2.314A3.427,3.427,0,0,0,4.513,2.14c-.416,0-1.312.3-1.312.87V4.384H5.329V6.7H3.2v6.385H1.056V6.7H0V4.384H1.056V3.218C1.056,1.461,1.792,0,3.569,0A7.849,7.849,0,0,1,5.857.261Z" transform="translate(1284.571 4065.576)" fill="#080809"/>
  </g>
</svg>
