<svg xmlns="http://www.w3.org/2000/svg" width="38.295" height="38.295" viewBox="0 0 38.295 38.295">
  <path id="SETA_NOSSOS_SERVIÇOS" data-name="SETA NOSSOS SERVIÇOS" d="M38.3,19.148A19.148,19.148,0,1,0,19.148,38.3,19.148,19.148,0,0,0,38.3,19.148Zm-25.53,0a4.776,4.776,0,0,1,1.2-3.171c.464-.522.916-1.016,1.24-1.34l4.506-4.584a1.6,1.6,0,0,1,2.275,2.234l-4.514,4.6c-.3.3-.7.747-1.117,1.211a1.6,1.6,0,0,0,0,2.111c.412.463.817.91,1.106,1.2l4.525,4.6a1.6,1.6,0,0,1-2.275,2.234L15.2,23.65c-.319-.319-.766-.809-1.227-1.329a4.771,4.771,0,0,1-1.2-3.174Z" transform="translate(38.295 38.295) rotate(180)" fill="#767923"/>
</svg>
